<?xml version="1.0" encoding="UTF-8" standalone="no" ?>
<!DOCTYPE svg PUBLIC "-//W3C//DTD SVG 1.1//EN" "http://www.w3.org/Graphics/SVG/1.1/DTD/svg11.dtd">
<svg xmlns="http://www.w3.org/2000/svg" xmlns:xlink="http://www.w3.org/1999/xlink" version="1.1" width="250" height="50" viewBox="0 0 1100 250" xml:space="preserve">
<desc>Created with Fabric.js 5.2.4</desc>
<defs>
</defs>
<rect x="0" y="0" width="100%" height="100%" fill="transparent"></rect>
<g transform="matrix(1,0,0,1,550,125)" id="78ac072a-1e25-4473-9d36-be6cb72a28c9"  >
<rect style="fill: rgb(255, 255, 255); fill-rule: nonzero; stroke: none; stroke-width: 1; stroke-linecap: butt; stroke-linejoin: miter; stroke-dasharray: none; stroke-dashoffset: 0; stroke-miterlimit: 4; opacity: 1; visibility: hidden" vector-effect="non-scaling-stroke"  x="-547" y="-127" rx="0" ry="0" width="1100" height="250" />
</g>
<g transform="matrix(Infinity NaN NaN Infinity 0 0)" id="b5a8f8ad-1864-46de-8dbb-565c57ff0cfe"  >
</g>
<g transform="matrix(2.5,0,0,2.5,550,125)" id="fbb08f4e-8319-4a04-b8d3-5d1fb00fee18"  >
<path style="fill: rgb(111, 111, 111); fill-rule: nonzero; stroke: rgb(0, 0, 0); stroke-width: 1; stroke-linecap: butt; stroke-linejoin: miter; stroke-dasharray: none; stroke-dashoffset: 0; stroke-miterlimit: 4; opacity: 1" vector-effect="non-scaling-stroke"  transform="matrix(1.3,0,0,1.4,-271,47.3)" d="M 50.8 -14.3 L 50.8 -14.3 Q 50.2 -14.3 48.5 -14.2 L 48.5 -14.2 L 48.5 -14.2 Q 46.9 -14 45.1 -13.8 L 45.1 -13.8 L 45.1 -13.8 Q 43.3 -13.6 41.8 -13.4 L 41.8 -13.4 L 41.8 -13.4 Q 40.4 -13.2 40.3 -13.1 L 40.3 -13.1 L 40.3 -13.1 Q 41 -15.9 41.8 -19.2 L 41.8 -19.2 L 41.8 -19.2 Q 42.6 -22.6 43.4 -26.3 L 43.4 -26.3 L 43.4 -26.3 Q 44.2 -30 44.9 -33.7 L 44.9 -33.7 L 44.9 -33.7 Q 45.7 -37.5 46.4 -41 L 46.4 -41 L 46.4 -41 Q 48 -49.2 49.5 -57.9 L 49.5 -57.9 L 59.5 -59.5 L 59.5 -59.5 Q 57.8 -50.9 56.2 -42.6 L 56.2 -42.6 L 56.2 -42.6 Q 55.4 -39.1 54.7 -35.3 L 54.7 -35.3 L 54.7 -35.3 Q 54 -31.6 53.3 -27.8 L 53.3 -27.8 L 53.3 -27.8 Q 52.6 -24.1 52 -20.6 L 52 -20.6 L 52 -20.6 Q 51.3 -17.2 50.8 -14.3 L 50.8 -14.3 Z M 62.1 -14.2 L 51.5 -13.4 L 51.5 -13.4 Q 54.4 -22 56.9 -30.2 L 56.9 -30.2 L 56.9 -30.2 Q 58 -33.6 59.2 -37.4 L 59.2 -37.4 L 59.2 -37.4 Q 60.3 -41.2 61.5 -44.9 L 61.5 -44.9 L 61.5 -44.9 Q 62.6 -48.6 63.6 -52 L 63.6 -52 L 63.6 -52 Q 64.6 -55.5 65.4 -58.4 L 65.4 -58.4 L 65.4 -58.4 Q 68.9 -58.4 72 -58.8 L 72 -58.8 L 72 -58.8 Q 75.2 -59.2 78.8 -59.5 L 78.8 -59.5 L 78.8 -59.5 Q 78.6 -58.1 78.4 -56.4 L 78.4 -56.4 L 78.4 -56.4 Q 78.2 -54.6 77.9 -52.7 L 77.9 -52.7 L 77.9 -52.7 Q 77.6 -50.8 77.3 -48.7 L 77.3 -48.7 L 77.3 -48.7 Q 77 -46.7 76.5 -43.5 L 76.5 -43.5 L 76.5 -43.5 Q 76.1 -40.3 75.3 -35.5 L 75.3 -35.5 L 76.1 -35.5 L 76.1 -35.5 Q 78 -40.3 79.2 -43.6 L 79.2 -43.6 L 79.2 -43.6 Q 80.4 -46.8 81.2 -48.8 L 81.2 -48.8 L 81.2 -48.8 Q 81.9 -50.9 82.7 -52.8 L 82.7 -52.8 L 82.7 -52.8 Q 83.5 -54.8 84.3 -56.6 L 84.3 -56.6 L 84.3 -56.6 Q 85 -58.3 85.7 -59.7 L 85.7 -59.7 L 85.7 -59.7 Q 87.3 -59.8 88.7 -60 L 88.7 -60 L 88.7 -60 Q 90.1 -60.2 91.5 -60.4 L 91.5 -60.4 L 91.5 -60.4 Q 92.9 -60.6 94.3 -60.8 L 94.3 -60.8 L 94.3 -60.8 Q 95.8 -61.1 97.5 -61.4 L 97.5 -61.4 L 97.5 -61.4 Q 96.9 -57.7 96.3 -53.8 L 96.3 -53.8 L 96.3 -53.8 Q 95.7 -49.9 95.3 -46 L 95.3 -46 L 95.3 -46 Q 94.8 -42.1 94.4 -38.3 L 94.4 -38.3 L 94.4 -38.3 Q 94 -34.6 93.7 -31.2 L 93.7 -31.2 L 93.7 -31.2 Q 92.9 -23.2 92.3 -15.7 L 92.3 -15.7 L 81.2 -13.7 L 81.2 -13.7 Q 81.2 -14 81.3 -15.4 L 81.3 -15.4 L 81.3 -15.4 Q 81.4 -16.8 81.5 -18.9 L 81.5 -18.9 L 81.5 -18.9 Q 81.7 -20.9 82 -23.4 L 82 -23.4 L 82 -23.4 Q 82.3 -25.9 82.6 -28.4 L 82.6 -28.4 L 82.6 -28.4 Q 82.8 -30.9 83.2 -33.3 L 83.2 -33.3 L 83.2 -33.3 Q 83.5 -35.6 83.8 -37.3 L 83.8 -37.3 L 83.2 -37.3 L 83.2 -37.3 Q 82.3 -34.6 81.2 -31.6 L 81.2 -31.6 L 81.2 -31.6 Q 80.2 -28.6 79 -25.5 L 79 -25.5 L 79 -25.5 Q 77.9 -22.5 76.8 -19.5 L 76.8 -19.5 L 76.8 -19.5 Q 75.7 -16.6 74.9 -13.9 L 74.9 -13.9 L 74.9 -13.9 Q 72.7 -13.8 71.1 -13.7 L 71.1 -13.7 L 71.1 -13.7 Q 69.5 -13.6 67.4 -13.5 L 67.4 -13.5 L 69.4 -37.3 L 68.4 -37.3 L 68.4 -37.3 Q 68.3 -36.4 67.8 -34.5 L 67.8 -34.5 L 67.8 -34.5 Q 67.3 -32.5 66.6 -30 L 66.6 -30 L 66.6 -30 Q 65.9 -27.5 65.2 -24.7 L 65.2 -24.7 L 65.2 -24.7 Q 64.4 -22 63.7 -19.7 L 63.7 -19.7 L 63.7 -19.7 Q 63.1 -17.4 62.6 -15.8 L 62.6 -15.8 L 62.6 -15.8 Q 62.2 -14.3 62.1 -14.2 L 62.1 -14.2 Z M 116.6 -14.3 L 116.6 -14.3 Q 115 -14.1 113.1 -13.8 L 113.1 -13.8 L 113.1 -13.8 Q 111.2 -13.4 109.7 -13.2 L 109.7 -13.2 L 109.7 -13.2 Q 109.9 -15.3 110.2 -17.4 L 110.2 -17.4 L 110.2 -17.4 Q 110.4 -19.1 110.5 -20.9 L 110.5 -20.9 L 110.5 -20.9 Q 110.7 -22.7 110.8 -24 L 110.8 -24 L 105.2 -24 L 102.7 -14.8 L 102.7 -14.8 Q 101.3 -14.6 99.4 -14.4 L 99.4 -14.4 L 99.4 -14.4 Q 97.4 -14.2 95.8 -14 L 95.8 -14 L 95.8 -14 Q 93.7 -13.7 91.7 -13.4 L 91.7 -13.4 L 91.7 -13.4 Q 94.3 -22 96.8 -30.2 L 96.8 -30.2 L 96.8 -30.2 Q 97.8 -33.7 98.9 -37.4 L 98.9 -37.4 L 98.9 -37.4 Q 100.1 -41.2 101.2 -45 L 101.2 -45 L 101.2 -45 Q 102.3 -48.7 103.3 -52.2 L 103.3 -52.2 L 103.3 -52.2 Q 104.3 -55.6 105.1 -58.5 L 105.1 -58.5 L 105.1 -58.5 Q 109.5 -58.8 114 -59.3 L 114 -59.3 L 114 -59.3 Q 118.5 -59.7 122.8 -60.5 L 122.8 -60.5 L 122.8 -60.5 Q 122.6 -58.4 122.4 -55.4 L 122.4 -55.4 L 122.4 -55.4 Q 122.1 -52.4 121.9 -48.8 L 121.9 -48.8 L 121.9 -48.8 Q 121.8 -45.2 121.6 -41.3 L 121.6 -41.3 L 121.6 -41.3 Q 121.4 -37.4 121.2 -33.6 L 121.2 -33.6 L 121.2 -33.6 Q 120.9 -24.8 120.5 -14.9 L 120.5 -14.9 L 120.5 -14.9 Q 118.6 -14.5 116.6 -14.3 L 116.6 -14.3 Z M 110.7 -46.5 L 106.8 -30.4 L 106.8 -30.4 Q 107 -30.4 107.7 -30.4 L 107.7 -30.4 L 107.7 -30.4 Q 108.4 -30.5 109.1 -30.5 L 109.1 -30.5 L 109.1 -30.5 Q 109.8 -30.5 110.5 -30.6 L 110.5 -30.6 L 110.5 -30.6 Q 111.1 -30.6 111.4 -30.7 L 111.4 -30.7 L 111.4 -30.7 Q 111.4 -31 111.5 -32 L 111.5 -32 L 111.5 -32 Q 111.6 -32.9 111.7 -34.1 L 111.7 -34.1 L 111.7 -34.1 Q 111.8 -35.3 111.9 -36.7 L 111.9 -36.7 L 111.9 -36.7 Q 112 -38.1 112.2 -39.4 L 112.2 -39.4 L 112.2 -39.4 Q 112.4 -42.7 112.8 -46.5 L 112.8 -46.5 L 113.2 -52 L 112.2 -52 L 110.7 -46.5 Z M 155.6 -37.4 L 155.6 -37.4 Q 155.2 -30.9 153 -26.1 L 153 -26.1 L 153 -26.1 Q 150.9 -21.3 148 -18 L 148 -18 L 148 -18 Q 145 -14.7 141.6 -13.1 L 141.6 -13.1 L 141.6 -13.1 Q 138.1 -11.5 135.1 -11.5 L 135.1 -11.5 L 135.1 -11.5 Q 132.7 -11.5 130.6 -12.6 L 130.6 -12.6 L 130.6 -12.6 Q 128.4 -13.6 126.8 -15.7 L 126.8 -15.7 L 126.8 -15.7 Q 125.3 -17.7 124.4 -20.9 L 124.4 -20.9 L 124.4 -20.9 Q 123.5 -24 123.5 -28.2 L 123.5 -28.2 L 123.5 -28.2 Q 123.5 -36.5 125.8 -42.6 L 125.8 -42.6 L 125.8 -42.6 Q 128.2 -48.8 131.8 -52.9 L 131.8 -52.9 L 131.8 -52.9 Q 135.4 -57 139.6 -59 L 139.6 -59 L 139.6 -59 Q 143.7 -60.9 147.3 -60.9 L 147.3 -60.9 L 147.3 -60.9 Q 149.8 -60.9 151.7 -60 L 151.7 -60 L 151.7 -60 Q 153.6 -59.1 154.8 -57.6 L 154.8 -57.6 L 154.8 -57.6 Q 156.1 -56.1 156.6 -54.1 L 156.6 -54.1 L 156.6 -54.1 Q 157.1 -52.1 157.1 -49.9 L 157.1 -49.9 L 148.4 -48.2 L 148.4 -48.2 Q 147.8 -50.8 146.8 -51.8 L 146.8 -51.8 L 146.8 -51.8 Q 145.9 -52.9 144.7 -52.9 L 144.7 -52.9 L 144.7 -52.9 Q 143.1 -52.9 141.1 -50.7 L 141.1 -50.7 L 141.1 -50.7 Q 139.2 -48.4 137.6 -44.8 L 137.6 -44.8 L 137.6 -44.8 Q 135.9 -41.2 134.7 -36.9 L 134.7 -36.9 L 134.7 -36.9 Q 133.6 -32.6 133.5 -28.5 L 133.5 -28.5 L 133.5 -28.5 Q 133.5 -24.5 134.6 -22.8 L 134.6 -22.8 L 134.6 -22.8 Q 135.8 -21.1 137.7 -21.1 L 137.7 -21.1 L 137.7 -21.1 Q 139 -21.1 140.3 -21.8 L 140.3 -21.8 L 140.3 -21.8 Q 141.7 -22.4 142.8 -23.6 L 142.8 -23.6 L 142.8 -23.6 Q 143.9 -24.8 144.6 -26.3 L 144.6 -26.3 L 144.6 -26.3 Q 145.4 -27.9 145.4 -29.8 L 145.4 -29.8 L 138.6 -28.7 L 139.8 -35.1 L 139.8 -35.1 Q 142.8 -35.5 145.7 -35.8 L 145.7 -35.8 L 145.7 -35.8 Q 148.1 -36.2 150.8 -36.6 L 150.8 -36.6 L 150.8 -36.6 Q 153.6 -37.1 155.6 -37.4 L 155.6 -37.4 Z M 173.9 -16.2 L 153.2 -13 L 161.6 -58.5 L 181.8 -60.2 L 181.8 -60.2 Q 181.4 -58.8 181.1 -57.4 L 181.1 -57.4 L 181.1 -57.4 Q 180.8 -56.1 180.5 -54.8 L 180.5 -54.8 L 180.5 -54.8 Q 180.2 -53.5 180 -52.5 L 180 -52.5 L 180 -52.5 Q 179.4 -52.4 178.2 -52.4 L 178.2 -52.4 L 178.2 -52.4 Q 177 -52.4 175.6 -52.3 L 175.6 -52.3 L 175.6 -52.3 Q 174.3 -52.3 172.9 -52.3 L 172.9 -52.3 L 172.9 -52.3 Q 171.5 -52.3 170.5 -52.3 L 170.5 -52.3 L 168.3 -40.8 L 168.3 -40.8 Q 170.3 -41 172 -41 L 172 -41 L 172 -41 Q 173.4 -41.1 174.9 -41.1 L 174.9 -41.1 L 174.9 -41.1 Q 176.3 -41.1 177 -41.2 L 177 -41.2 L 177 -41.2 Q 176.8 -39.4 176.6 -37.6 L 176.6 -37.6 L 176.6 -37.6 Q 176.3 -35.9 176 -34.1 L 176 -34.1 L 176 -34.1 Q 175.4 -34.1 173.9 -34 L 173.9 -34 L 173.9 -34 Q 172.5 -34 171 -33.9 L 171 -33.9 L 171 -33.9 Q 169.4 -33.9 167.4 -33.8 L 167.4 -33.8 L 165.2 -22 L 174.6 -23.5 L 173.9 -16.2 Z M 221.8 -37.4 L 221.8 -37.4 Q 221.4 -30.9 219.3 -26.1 L 219.3 -26.1 L 219.3 -26.1 Q 217.2 -21.3 214.2 -18 L 214.2 -18 L 214.2 -18 Q 211.2 -14.7 207.8 -13.1 L 207.8 -13.1 L 207.8 -13.1 Q 204.4 -11.5 201.3 -11.5 L 201.3 -11.5 L 201.3 -11.5 Q 198.9 -11.5 196.8 -12.6 L 196.8 -12.6 L 196.8 -12.6 Q 194.6 -13.6 193.1 -15.7 L 193.1 -15.7 L 193.1 -15.7 Q 191.5 -17.7 190.6 -20.9 L 190.6 -20.9 L 190.6 -20.9 Q 189.7 -24 189.7 -28.2 L 189.7 -28.2 L 189.7 -28.2 Q 189.7 -36.5 192.1 -42.6 L 192.1 -42.6 L 192.1 -42.6 Q 194.5 -48.8 198.1 -52.9 L 198.1 -52.9 L 198.1 -52.9 Q 201.7 -57 205.8 -59 L 205.8 -59 L 205.8 -59 Q 209.9 -60.9 213.5 -60.9 L 213.5 -60.9 L 213.5 -60.9 Q 216.1 -60.9 218 -60 L 218 -60 L 218 -60 Q 219.9 -59.1 221.1 -57.6 L 221.1 -57.6 L 221.1 -57.6 Q 222.3 -56.1 222.8 -54.1 L 222.8 -54.1 L 222.8 -54.1 Q 223.4 -52.1 223.4 -49.9 L 223.4 -49.9 L 214.6 -48.2 L 214.6 -48.2 Q 214 -50.8 213.1 -51.8 L 213.1 -51.8 L 213.1 -51.8 Q 212.1 -52.9 210.9 -52.9 L 210.9 -52.9 L 210.9 -52.9 Q 209.3 -52.9 207.4 -50.7 L 207.4 -50.7 L 207.4 -50.7 Q 205.5 -48.4 203.8 -44.8 L 203.8 -44.8 L 203.8 -44.8 Q 202.1 -41.2 201 -36.9 L 201 -36.9 L 201 -36.9 Q 199.8 -32.6 199.7 -28.5 L 199.7 -28.5 L 199.7 -28.5 Q 199.7 -24.5 200.9 -22.8 L 200.9 -22.8 L 200.9 -22.8 Q 202.1 -21.1 203.9 -21.1 L 203.9 -21.1 L 203.9 -21.1 Q 205.2 -21.1 206.6 -21.8 L 206.6 -21.8 L 206.6 -21.8 Q 208 -22.4 209 -23.6 L 209 -23.6 L 209 -23.6 Q 210.1 -24.8 210.9 -26.3 L 210.9 -26.3 L 210.9 -26.3 Q 211.6 -27.9 211.7 -29.8 L 211.7 -29.8 L 204.8 -28.7 L 206 -35.1 L 206 -35.1 Q 209 -35.5 211.9 -35.8 L 211.9 -35.8 L 211.9 -35.8 Q 214.4 -36.2 217.1 -36.6 L 217.1 -36.6 L 217.1 -36.6 Q 219.8 -37.1 221.8 -37.4 L 221.8 -37.4 Z M 242.5 -14.3 L 242.5 -14.3 Q 240.9 -14.1 239 -13.8 L 239 -13.8 L 239 -13.8 Q 237.1 -13.4 235.5 -13.2 L 235.5 -13.2 L 235.5 -13.2 Q 235.8 -15.3 236.1 -17.4 L 236.1 -17.4 L 236.1 -17.4 Q 236.2 -19.1 236.4 -20.9 L 236.4 -20.9 L 236.4 -20.9 Q 236.6 -22.7 236.7 -24 L 236.7 -24 L 231.1 -24 L 228.6 -14.8 L 228.6 -14.8 Q 227.2 -14.6 225.2 -14.4 L 225.2 -14.4 L 225.2 -14.4 Q 223.3 -14.2 221.7 -14 L 221.7 -14 L 221.7 -14 Q 219.6 -13.7 217.6 -13.4 L 217.6 -13.4 L 217.6 -13.4 Q 220.2 -22 222.7 -30.2 L 222.7 -30.2 L 222.7 -30.2 Q 223.7 -33.7 224.8 -37.4 L 224.8 -37.4 L 224.8 -37.4 Q 225.9 -41.2 227.1 -45 L 227.1 -45 L 227.1 -45 Q 228.2 -48.7 229.2 -52.2 L 229.2 -52.2 L 229.2 -52.2 Q 230.2 -55.6 231 -58.5 L 231 -58.5 L 231 -58.5 Q 235.4 -58.8 239.9 -59.3 L 239.9 -59.3 L 239.9 -59.3 Q 244.4 -59.7 248.7 -60.5 L 248.7 -60.5 L 248.7 -60.5 Q 248.5 -58.4 248.2 -55.4 L 248.2 -55.4 L 248.2 -55.4 Q 248 -52.4 247.8 -48.8 L 247.8 -48.8 L 247.8 -48.8 Q 247.6 -45.2 247.4 -41.3 L 247.4 -41.3 L 247.4 -41.3 Q 247.3 -37.4 247.1 -33.6 L 247.1 -33.6 L 247.1 -33.6 Q 246.7 -24.8 246.4 -14.9 L 246.4 -14.9 L 246.4 -14.9 Q 244.4 -14.5 242.5 -14.3 L 242.5 -14.3 Z M 236.6 -46.5 L 232.7 -30.4 L 232.7 -30.4 Q 232.9 -30.4 233.6 -30.4 L 233.6 -30.4 L 233.6 -30.4 Q 234.3 -30.5 235 -30.5 L 235 -30.5 L 235 -30.5 Q 235.7 -30.5 236.4 -30.6 L 236.4 -30.6 L 236.4 -30.6 Q 237 -30.6 237.3 -30.7 L 237.3 -30.7 L 237.3 -30.7 Q 237.3 -31 237.4 -32 L 237.4 -32 L 237.4 -32 Q 237.5 -32.9 237.6 -34.1 L 237.6 -34.1 L 237.6 -34.1 Q 237.7 -35.3 237.8 -36.7 L 237.8 -36.7 L 237.8 -36.7 Q 237.9 -38.1 238 -39.4 L 238 -39.4 L 238 -39.4 Q 238.3 -42.7 238.7 -46.5 L 238.7 -46.5 L 239.1 -52 L 238.1 -52 L 236.6 -46.5 Z M 264.3 -15.1 L 264.3 -15.1 Q 262.4 -15.1 260.2 -15 L 260.2 -15 L 260.2 -15 Q 257.9 -14.9 255.7 -14.6 L 255.7 -14.6 L 255.7 -14.6 Q 253.5 -14.3 251.3 -13.9 L 251.3 -13.9 L 251.3 -13.9 Q 249.2 -13.5 247.4 -12.9 L 247.4 -12.9 L 247.4 -12.9 Q 247.8 -15.8 248.3 -19.3 L 248.3 -19.3 L 248.3 -19.3 Q 248.9 -22.9 249.5 -26.6 L 249.5 -26.6 L 249.5 -26.6 Q 250.2 -30.4 250.9 -34.2 L 250.9 -34.2 L 250.9 -34.2 Q 251.5 -38.1 252.2 -41.6 L 252.2 -41.6 L 252.2 -41.6 Q 253.8 -50 255.6 -58.7 L 255.6 -58.7 L 266.8 -60.2 L 266.8 -60.2 Q 265.1 -52.7 263.5 -45.7 L 263.5 -45.7 L 263.5 -45.7 Q 262.8 -42.7 262.1 -39.5 L 262.1 -39.5 L 262.1 -39.5 Q 261.4 -36.2 260.8 -33.2 L 260.8 -33.2 L 260.8 -33.2 Q 260.1 -30.1 259.6 -27.2 L 259.6 -27.2 L 259.6 -27.2 Q 259.1 -24.3 258.8 -22.1 L 258.8 -22.1 L 258.8 -22.1 Q 260.4 -22.2 262.2 -22.2 L 262.2 -22.2 L 262.2 -22.2 Q 264 -22.3 265.4 -22.3 L 265.4 -22.3 L 265.4 -22.3 Q 265.5 -21.1 265.6 -19.9 L 265.6 -19.9 L 265.6 -19.9 Q 265.8 -18.7 265.9 -17.7 L 265.9 -17.7 L 265.9 -17.7 Q 266.1 -16.8 266.2 -16 L 266.2 -16 L 266.2 -16 Q 266.3 -15.3 266.3 -15 L 266.3 -15 L 266.3 -15 Q 265.8 -15 265.3 -15.1 L 265.3 -15.1 L 265.3 -15.1 Q 264.9 -15.1 264.3 -15.1 L 264.3 -15.1 Z M 283.7 -15.1 L 283.7 -15.1 Q 281.7 -15.1 279.5 -15 L 279.5 -15 L 279.5 -15 Q 277.3 -14.9 275 -14.6 L 275 -14.6 L 275 -14.6 Q 272.8 -14.3 270.6 -13.9 L 270.6 -13.9 L 270.6 -13.9 Q 268.5 -13.5 266.8 -12.9 L 266.8 -12.9 L 266.8 -12.9 Q 267.2 -15.8 267.7 -19.3 L 267.7 -19.3 L 267.7 -19.3 Q 268.2 -22.9 268.9 -26.6 L 268.9 -26.6 L 268.9 -26.6 Q 269.5 -30.4 270.2 -34.2 L 270.2 -34.2 L 270.2 -34.2 Q 270.9 -38.1 271.6 -41.6 L 271.6 -41.6 L 271.6 -41.6 Q 273.2 -50 275 -58.7 L 275 -58.7 L 286.2 -60.2 L 286.2 -60.2 Q 284.4 -52.7 282.8 -45.7 L 282.8 -45.7 L 282.8 -45.7 Q 282.1 -42.7 281.4 -39.5 L 281.4 -39.5 L 281.4 -39.5 Q 280.7 -36.2 280.1 -33.2 L 280.1 -33.2 L 280.1 -33.2 Q 279.4 -30.1 278.9 -27.2 L 278.9 -27.2 L 278.9 -27.2 Q 278.4 -24.3 278.1 -22.1 L 278.1 -22.1 L 278.1 -22.1 Q 279.7 -22.2 281.5 -22.2 L 281.5 -22.2 L 281.5 -22.2 Q 283.4 -22.3 284.8 -22.3 L 284.8 -22.3 L 284.8 -22.3 Q 284.8 -21.1 285 -19.9 L 285 -19.9 L 285 -19.9 Q 285.1 -18.7 285.2 -17.7 L 285.2 -17.7 L 285.2 -17.7 Q 285.4 -16.8 285.5 -16 L 285.5 -16 L 285.5 -16 Q 285.6 -15.3 285.7 -15 L 285.7 -15 L 285.7 -15 Q 285.1 -15 284.7 -15.1 L 284.7 -15.1 L 284.7 -15.1 Q 284.2 -15.1 283.7 -15.1 L 283.7 -15.1 Z M 306.5 -16.2 L 285.8 -13 L 294.2 -58.5 L 314.5 -60.2 L 314.5 -60.2 Q 314 -58.8 313.7 -57.4 L 313.7 -57.4 L 313.7 -57.4 Q 313.4 -56.1 313.1 -54.8 L 313.1 -54.8 L 313.1 -54.8 Q 312.8 -53.5 312.6 -52.5 L 312.6 -52.5 L 312.6 -52.5 Q 312 -52.4 310.8 -52.4 L 310.8 -52.4 L 310.8 -52.4 Q 309.6 -52.4 308.2 -52.3 L 308.2 -52.3 L 308.2 -52.3 Q 306.9 -52.3 305.5 -52.3 L 305.5 -52.3 L 305.5 -52.3 Q 304.2 -52.3 303.1 -52.3 L 303.1 -52.3 L 300.9 -40.8 L 300.9 -40.8 Q 302.9 -41 304.6 -41 L 304.6 -41 L 304.6 -41 Q 306 -41.1 307.5 -41.1 L 307.5 -41.1 L 307.5 -41.1 Q 309 -41.1 309.7 -41.2 L 309.7 -41.2 L 309.7 -41.2 Q 309.4 -39.4 309.2 -37.6 L 309.2 -37.6 L 309.2 -37.6 Q 309 -35.9 308.6 -34.1 L 308.6 -34.1 L 308.6 -34.1 Q 308 -34.1 306.6 -34 L 306.6 -34 L 306.6 -34 Q 305.1 -34 303.6 -33.9 L 303.6 -33.9 L 303.6 -33.9 Q 302 -33.9 300 -33.8 L 300 -33.8 L 297.8 -22 L 307.2 -23.5 L 306.5 -16.2 Z M 317.8 -15.7 L 307.4 -13 L 307.4 -13 Q 309.1 -21.5 310.7 -29.6 L 310.7 -29.6 L 310.7 -29.6 Q 311.3 -33.1 312 -36.8 L 312 -36.8 L 312 -36.8 Q 312.7 -40.6 313.3 -44.3 L 313.3 -44.3 L 313.3 -44.3 Q 313.9 -47.9 314.5 -51.4 L 314.5 -51.4 L 314.5 -51.4 Q 315 -54.8 315.4 -57.6 L 315.4 -57.6 L 315.4 -57.6 Q 319 -58.8 323.2 -59.3 L 323.2 -59.3 L 323.2 -59.3 Q 327.4 -59.8 331.6 -59.8 L 331.6 -59.8 L 331.6 -59.8 Q 334.1 -59.8 335.7 -59.3 L 335.7 -59.3 L 335.7 -59.3 Q 337.4 -58.7 338.3 -57.6 L 338.3 -57.6 L 338.3 -57.6 Q 339.2 -56.6 339.6 -55.2 L 339.6 -55.2 L 339.6 -55.2 Q 340 -53.8 340 -52 L 340 -52 L 340 -52 Q 340 -49.5 339.1 -47 L 339.1 -47 L 339.1 -47 Q 338.2 -44.6 336.7 -42.3 L 336.7 -42.3 L 336.7 -42.3 Q 335.2 -40.1 333.2 -38.3 L 333.2 -38.3 L 333.2 -38.3 Q 331.3 -36.5 329 -35.3 L 329 -35.3 L 329 -35.3 Q 330.2 -32.8 331.5 -29.7 L 331.5 -29.7 L 331.5 -29.7 Q 332.8 -26.7 334 -23.9 L 334 -23.9 L 334 -23.9 Q 335.3 -20.7 336.6 -17.5 L 336.6 -17.5 L 326.7 -14.1 L 326.7 -14.1 Q 325.4 -18.2 324.4 -21.8 L 324.4 -21.8 L 324.4 -21.8 Q 323.9 -23.2 323.5 -24.8 L 323.5 -24.8 L 323.5 -24.8 Q 323 -26.4 322.6 -27.8 L 322.6 -27.8 L 322.6 -27.8 Q 322.3 -29.2 322 -30.3 L 322 -30.3 L 322 -30.3 Q 321.8 -31.4 321.7 -32.1 L 321.7 -32.1 L 320.9 -31.9 L 320.9 -31.9 Q 320.5 -29.8 319.9 -27.1 L 319.9 -27.1 L 319.9 -27.1 Q 319.4 -24.3 318.9 -21.8 L 318.9 -21.8 L 318.9 -21.8 Q 318.4 -18.8 317.8 -15.7 L 317.8 -15.7 Z M 324.5 -51 L 322.5 -40.8 L 322.5 -40.8 Q 323.7 -40.9 325.4 -41.8 L 325.4 -41.8 L 325.4 -41.8 Q 327.2 -42.7 328.8 -43.9 L 328.8 -43.9 L 328.8 -43.9 Q 330.4 -45.2 331.5 -46.5 L 331.5 -46.5 L 331.5 -46.5 Q 332.7 -47.9 332.7 -48.9 L 332.7 -48.9 L 332.7 -48.9 Q 332.7 -49.6 332.2 -50 L 332.2 -50 L 332.2 -50 Q 331.8 -50.4 331 -50.7 L 331 -50.7 L 331 -50.7 Q 330.2 -50.9 329.2 -51 L 329.2 -51 L 329.2 -51 Q 328.3 -51 327.3 -51 L 327.3 -51 L 327.3 -51 Q 326.6 -51 325.8 -51 L 325.8 -51 L 325.8 -51 Q 325.1 -51 324.5 -51 L 324.5 -51 Z M 351.4 -15.4 L 340.5 -14 L 343.4 -26.9 L 343.4 -26.9 Q 343.4 -29.6 343.4 -32.9 L 343.4 -32.9 L 343.4 -32.9 Q 343.3 -36.1 343.1 -39.4 L 343.1 -39.4 L 343.1 -39.4 Q 342.9 -42.6 342.7 -45.7 L 342.7 -45.7 L 342.7 -45.7 Q 342.5 -48.7 342.4 -51 L 342.4 -51 L 342.4 -51 Q 342.2 -53.4 342.1 -54.8 L 342.1 -54.8 L 342.1 -54.8 Q 342 -56.2 342 -56.2 L 342 -56.2 L 352.4 -60.2 L 352.4 -52.4 L 352.4 -52.4 Q 352.4 -50.8 352.4 -49.1 L 352.4 -49.1 L 352.4 -49.1 Q 352.4 -47.4 352.4 -45.8 L 352.4 -45.8 L 352.4 -45.8 Q 352.3 -44.2 352.3 -42.8 L 352.3 -42.8 L 352.3 -42.8 Q 352.3 -41.4 352.3 -40.5 L 352.3 -40.5 L 352.3 -40.5 Q 353.2 -42.6 354.4 -45.8 L 354.4 -45.8 L 354.4 -45.8 Q 355.5 -49 356.6 -52 L 356.6 -52 L 356.6 -52 Q 357.8 -55.6 359.1 -59.5 L 359.1 -59.5 L 369 -57.2 L 369 -57.2 Q 366.2 -51.7 363.6 -46.3 L 363.6 -46.3 L 363.6 -46.3 Q 362.5 -43.9 361.3 -41.4 L 361.3 -41.4 L 361.3 -41.4 Q 360.1 -38.9 358.9 -36.3 L 358.9 -36.3 L 358.9 -36.3 Q 357.7 -33.8 356.5 -31.4 L 356.5 -31.4 L 356.5 -31.4 Q 355.4 -29.1 354.4 -27 L 354.4 -27 L 354.4 -27 Q 354.1 -25.4 353.6 -23.4 L 353.6 -23.4 L 353.6 -23.4 Q 353.1 -21.4 352.7 -19.6 L 352.7 -19.6 L 352.7 -19.6 Q 352.1 -17.5 351.4 -15.4 L 351.4 -15.4 Z" stroke-linecap="round" />
</g>
</svg>